<?xml version="1.0" encoding="UTF-8" standalone="no"?>
<!-- Created with Inkscape (http://www.inkscape.org/) -->

<svg
   width="91.489845mm"
   height="102.0001mm"
   viewBox="0 0 91.489845 102.0001"
   version="1.1"
   id="svg1"
   inkscape:version="1.3 (0e150ed6c4, 2023-07-21)"
   sodipodi:docname="plantilla_raw.svg"
   inkscape:export-filename="Raw_selected.png"
   inkscape:export-xdpi="96"
   inkscape:export-ydpi="96"
   xmlns:inkscape="http://www.inkscape.org/namespaces/inkscape"
   xmlns:sodipodi="http://sodipodi.sourceforge.net/DTD/sodipodi-0.dtd"
   xmlns="http://www.w3.org/2000/svg"
   xmlns:svg="http://www.w3.org/2000/svg">
  <sodipodi:namedview
     id="namedview1"
     pagecolor="#ffffff"
     bordercolor="#000000"
     borderopacity="0.25"
     inkscape:showpageshadow="2"
     inkscape:pageopacity="0.0"
     inkscape:pagecheckerboard="0"
     inkscape:deskcolor="#d1d1d1"
     inkscape:document-units="mm"
     inkscape:zoom="0.75455247"
     inkscape:cx="153.73351"
     inkscape:cy="268.371"
     inkscape:window-width="1920"
     inkscape:window-height="1043"
     inkscape:window-x="0"
     inkscape:window-y="0"
     inkscape:window-maximized="1"
     inkscape:current-layer="g1" />
  <defs
     id="defs1" />
  <g
     inkscape:label="Capa 1"
     inkscape:groupmode="layer"
     id="layer1"
     transform="translate(-65.067407,-78.740774)">
    <g
       id="g1"
       transform="translate(131.98446,50.542675)">
      <path
         id="rect1-5"
         style="opacity:1;fill:#ffffff;stroke:#ff0000;stroke-width:2;stroke-miterlimit:3.4;stroke-dasharray:none"
         d="M -65.917053,29.198099 V 129.1982 H 14.082715 V 93.182307 c 0.987511,-0.212593 1.94114,-0.526877 2.847789,-0.93333 0.906649,-0.406453 1.766401,-0.905135 2.565907,-1.486341 0.799506,-0.581206 1.539098,-1.24518 2.205428,-1.982215 0.666329,-0.737036 2.239102,-1.528274 1.76635,-2.420953 -0.457721,-0.864296 -1.907514,-0.226554 -2.751948,-0.595233 -0.844434,-0.368678 -1.60368,-0.895131 -2.240814,-1.54188 -0.637135,-0.646749 -1.152159,-1.413793 -1.50815,-2.263654 -0.355992,-0.849861 -0.55295,-1.782538 -0.553955,-2.760553 7e-4,-0.981293 0.19865,-1.916836 0.556502,-2.768886 0.357853,-0.852049 0.87561,-1.620605 1.515923,-2.267922 0.640313,-0.647317 1.403191,-1.173397 2.251297,-1.540494 0.848106,-0.367098 2.301208,0.279419 2.762667,-0.586602 0.476272,-0.893822 -1.103534,-1.687891 -1.772138,-2.426282 C 21.058968,68.869571 20.316876,68.204743 19.514509,67.623057 18.712142,67.041371 17.8495,66.542826 16.939797,66.137002 16.030094,65.731178 15.073329,65.418075 14.082715,65.207271 V 29.198099 Z"
         sodipodi:nodetypes="ccccsassssscsssssssccc"
         inkscape:export-filename="QC.png"
         inkscape:export-xdpi="96"
         inkscape:export-ydpi="96" />
    </g>
  </g>
</svg>
